HIERARCHY
ROOT hip
{
  OFFSET 0 0 0
  CHANNELS 6 Xposition Yposition Zposition Zrotation Yrotation Xrotation
  JOINT abdomen
  {
    OFFSET 0 20.6881 -0.73152
    CHANNELS 3 Zrotation Xrotation Yrotation
    JOINT chest
    {
      OFFSET 0 11.7043 -0.48768
      CHANNELS 3 Zrotation Xrotation Yrotation
      JOINT neck
      {
        OFFSET 0 22.1894 -2.19456
        CHANNELS 3 Zrotation Xrotation Yrotation
        JOINT head
        {
          OFFSET -0.24384 7.07133 1.2192
          CHANNELS 3 Zrotation Xrotation Yrotation
          JOINT leftEye
          {
            OFFSET 4.14528 8.04674 8.04672
            CHANNELS 3 Zrotation Xrotation Yrotation
            End Site
            {
              OFFSET 1 0 0
            }
          }
          JOINT rightEye
          {
            OFFSET -3.6576 8.04674 8.04672
            CHANNELS 3 Zrotation Xrotation Yrotation
            End Site
            {
              OFFSET 1 0 0
            }
          }
        }
      }
      JOINT rCollar
      {
        OFFSET -2.68224 19.2634 -4.8768
        CHANNELS 3 Zrotation Xrotation Yrotation
        JOINT rShldr
        {
          OFFSET -8.77824 -1.95073 1.46304
          CHANNELS 3 Zrotation Xrotation Yrotation
          JOINT rForeArm
          {
            OFFSET -28.1742 -1.7115 0.48768
            CHANNELS 3 Zrotation Xrotation Yrotation
            JOINT rHand
            {
              OFFSET -22.5879 0.773209 7.07136
              CHANNELS 3 Zrotation Xrotation Yrotation
              JOINT rThumb1
              {
                OFFSET -1.2192 -0.487915 3.41376
                CHANNELS 3 Zrotation Xrotation Yrotation
                JOINT rThumb2
                {
                  OFFSET -3.37035 -0.52449 3.41376
                  CHANNELS 3 Zrotation Xrotation Yrotation
                  End Site
                  {
                    OFFSET -1.78271 -1.18214 1.43049
                  }
                }
              }
              JOINT rIndex1
              {
                OFFSET -7.75947 0.938293 5.60832
                CHANNELS 3 Zrotation Xrotation Yrotation
                JOINT rIndex2
                {
                  OFFSET -2.54057 -0.884171 1.56538
                  CHANNELS 3 Zrotation Xrotation Yrotation
                  End Site
                  {
                    OFFSET -1.62519 -0.234802 1.16502
                  }
                }
              }
              JOINT rMid1
              {
                OFFSET -8.24714 1.18213 3.41376
                CHANNELS 3 Zrotation Xrotation Yrotation
                JOINT rMid2
                {
                  OFFSET -3.10165 -0.590103 1.0647
                  CHANNELS 3 Zrotation Xrotation Yrotation
                  End Site
                  {
                    OFFSET -2.48547 -0.328903 0.83742
                  }
                }
              }
              JOINT rRing1
              {
                OFFSET -8.82822 0.546677 1.51678
                CHANNELS 3 Zrotation Xrotation Yrotation
                JOINT rRing2
                {
                  OFFSET -2.60934 -0.819778 -0.0198488
                  CHANNELS 3 Zrotation Xrotation Yrotation
                  End Site
                  {
                    OFFSET -2.33842 -0.294052 0.168128
                  }
                }
              }
              JOINT rPinky1
              {
                OFFSET -8.27202 -0.0477905 -0.4584
                CHANNELS 3 Zrotation Xrotation Yrotation
                JOINT rPinky2
                {
                  OFFSET -1.82734 -0.647385 -0.700984
                  CHANNELS 3 Zrotation Xrotation Yrotation
                  End Site
                  {
                    OFFSET -1.69225 -0.51767 -0.607171
                  }
                }
              }
            }
          }
        }
      }
      JOINT lCollar
      {
        OFFSET 2.68224 19.2634 -4.8768
        CHANNELS 3 Zrotation Xrotation Yrotation
        JOINT lShldr
        {
          OFFSET 8.77824 -1.95073 1.46304
          CHANNELS 3 Zrotation Xrotation Yrotation
          JOINT lForeArm
          {
            OFFSET 28.1742 -1.7115 0.48768
            CHANNELS 3 Zrotation Xrotation Yrotation
            JOINT lHand
            {
              OFFSET 22.5879 0.773209 7.07136
              CHANNELS 3 Zrotation Xrotation Yrotation
              JOINT lThumb1
              {
                OFFSET 1.2192 -0.487915 3.41376
                CHANNELS 3 Zrotation Xrotation Yrotation
                JOINT lThumb2
                {
                  OFFSET 3.37035 -0.52449 3.41376
                  CHANNELS 3 Zrotation Xrotation Yrotation
                  End Site
                  {
                    OFFSET 1.78271 -1.18214 1.43049
                  }
                }
              }
              JOINT lIndex1
              {
                OFFSET 7.75947 0.938293 5.60832
                CHANNELS 3 Zrotation Xrotation Yrotation
                JOINT lIndex2
                {
                  OFFSET 2.54057 -0.884171 1.56538
                  CHANNELS 3 Zrotation Xrotation Yrotation
                  End Site
                  {
                    OFFSET 1.62519 -0.234802 1.16502
                  }
                }
              }
              JOINT lMid1
              {
                OFFSET 8.24714 1.18213 3.41376
                CHANNELS 3 Zrotation Xrotation Yrotation
                JOINT lMid2
                {
                  OFFSET 3.10165 -0.590103 1.0647
                  CHANNELS 3 Zrotation Xrotation Yrotation
                  End Site
                  {
                    OFFSET 2.48547 -0.328903 0.83742
                  }
                }
              }
              JOINT lRing1
              {
                OFFSET 8.82822 0.546677 1.51678
                CHANNELS 3 Zrotation Xrotation Yrotation
                JOINT lRing2
                {
                  OFFSET 2.60934 -0.819778 -0.0198488
                  CHANNELS 3 Zrotation Xrotation Yrotation
                  End Site
                  {
                    OFFSET 2.33842 -0.294052 0.168128
                  }
                }
              }
              JOINT lPinky1
              {
                OFFSET 8.27202 -0.0477905 -0.4584
                CHANNELS 3 Zrotation Xrotation Yrotation
                JOINT lPinky2
                {
                  OFFSET 1.82734 -0.647385 -0.700984
                  CHANNELS 3 Zrotation Xrotation Yrotation
                  End Site
                  {
                    OFFSET 1.69225 -0.51767 -0.607171
                  }
                }
              }
            }
          }
        }
      }
    }
  }
  JOINT rButtock
  {
    OFFSET -8.77824 4.35084 1.2192
    CHANNELS 3 Zrotation Xrotation Yrotation
    JOINT rThigh
    {
      OFFSET 0 -1.70687 -2.19456
      CHANNELS 3 Zrotation Xrotation Yrotation
      JOINT rShin
      {
        OFFSET 0 -36.8199 0.73152
        CHANNELS 3 Zrotation Xrotation Yrotation
        JOINT rFoot
        {
          OFFSET 0.73152 -45.1104 -5.12064
          CHANNELS 3 Zrotation Xrotation Yrotation
          End Site
          {
            OFFSET -1.1221 -3.69964 12.103
          }
        }
      }
    }
  }
  JOINT lButtock
  {
    OFFSET 8.77824 4.35084 1.2192
    CHANNELS 3 Zrotation Xrotation Yrotation
    JOINT lThigh
    {
      OFFSET 0 -1.70687 -2.19456
      CHANNELS 3 Zrotation Xrotation Yrotation
      JOINT lShin
      {
        OFFSET 0 -36.8199 0.73152
        CHANNELS 3 Zrotation Xrotation Yrotation
        JOINT lFoot
        {
          OFFSET -0.73152 -45.1104 -5.12064
          CHANNELS 3 Zrotation Xrotation Yrotation
          End Site
          {
            OFFSET 1.1221 -3.69964 12.103
          }
        }
      }
    }
  }
}
MOTION
Frames:	7
Frame Time:	0.03333
0.0 0.0 0.0 0.0 0.0 0.0 0.0 0.0 0.0 0.0 0.0 0.0 0.0 0.0 0.0 0.0 0.0 0.0 0.0 0.0 0.0 0.0 0.0 0.0 0.0 0.0 0.0 0.0 0.0 0.0 0.0 0.0 0.0 0.0 0.0 0.0 0.0 0.0 0.0 0.0 0.0 0.0 0.0 0.0 0.0 0.0 0.0 0.0 0.0 0.0 0.0 0.0 0.0 0.0 0.0 0.0 0.0 0.0 0.0 0.0 0.0 0.0 0.0 0.0 0.0 0.0 0.0 0.0 0.0 0.0 0.0 0.0 0.0 0.0 0.0 0.0 0.0 0.0 0.0 0.0 0.0 0.0 0.0 0.0 0.0 0.0 0.0 0.0 0.0 0.0 0.0 0.0 0.0 0.0 0.0 0.0 0.0 0.0 0.0 0.0 0.0 0.0 0.0 0.0 0.0 0.0 0.0 0.0 0.0 0.0 0.0 0.0 0.0 0.0 0.0 0.0 0.0 0.0 0.0 0.0 0.0 0.0 0.0 0.0 0.0 0.0 0.0 0.0 0.0 0.0 0.0 0.0
0.025 10.299700000000001 -0.0989 179.634818 -30.151575 179.269967 -0.130333 0.396655 -161.810329 10.783205 -0.855469 -98.962987 15.224075 -11.309097 100.356116 -96.494691 38.943743 15.008501 -1.595369 -0.019163 1.376267 -2.075369 -0.015196 0.838951 -95.850429 58.146222 -10.390107 -147.593796 66.680047 -24.128812 4.069479 81.987648 -123.51856 144.391697 15.736901 81.428919 -1.34973 6.697926 -51.515615 -167.202028 -49.722094 101.853745 -159.073124 23.095004 150.665749 -61.003671 48.035334 46.622356 -23.113069 -45.276159 -51.4493 -83.78012 38.391657 80.67272 -3.046291 43.264087 1.475467 8.032217 40.495509 -3.889284 -147.564189 -50.308488 -132.067038 -36.908206 -40.185596 -21.636858 83.716531 -32.798757 -163.731683 -4.245467 21.849755 -11.480871 -89.714458 83.366151 -72.107199 145.447858 36.78278 42.972921 -35.803094 -78.050791 -1.289621 13.606054 -18.462059 1.540239 14.558817 -18.726709 20.237766 -154.215799 -59.719162 -99.870416 164.859881 8.064952 -158.279774 152.238601 6.880259 -154.200414 29.461023 -3.116211 1.319136 -11.563676 22.419807 -11.020631 157.761092 27.946977 -179.021734 141.709524 -4.357191 134.325475 46.420913 -4.303449 67.435393 -19.21956 42.376191 107.264268 -3.667401 -4.068645 -81.354701 57.052606 64.657876 -66.16235 1.743388 -51.645564 0.0 -5.436015 53.175847 6.779586 7.080152 2.312024 69.215465 -96.008714 12.22926 -73.320786
-0.12819999999999998 18.0245 -0.3653 171.092426 -40.906694 -167.218935 -15.833837 22.219629 -115.880653 47.931753 16.68715 113.012654 34.931882 78.691532 -132.32705 23.312775 -8.583337 51.700684 -48.612729 0.079526 -0.176079 -45.066874 -3.525227 8.48377 -148.776342 22.15225 179.17253 -79.983174 36.805614 52.974663 136.443327 36.757443 -49.188033 22.920378 53.560123 -37.553945 -7.394608 34.827127 11.952432 -82.813758 37.703274 29.026814 -167.123011 -37.197803 102.697477 -89.295173 -22.360694 -64.747232 -52.542389 -74.060529 178.203942 102.83609 39.722943 41.173227 53.935526 2.32433 -26.392161 -144.152547 -15.305347 139.174148 43.092215 -22.231735 -3.258617 18.046844 -6.247473 -27.516715 131.729297 -13.51931 -171.124159 107.792827 78.308864 -79.295627 16.101124 -65.555609 166.468762 -170.105991 7.795919 -117.970582 -5.040212 69.911048 -8.363908 7.418601 -52.557647 16.389783 -29.585313 6.410565 37.528121 -103.033054 66.670279 68.216645 -24.116527 -35.197278 76.541902 -93.377389 77.373557 128.934164 -7.791893 4.088356 25.000896 105.733176 -23.516914 139.711586 -5.146128 -13.019002 71.941434 156.597607 74.722751 148.450571 -19.497972 6.111976 9.077811 73.887723 -57.570153 76.297602 72.87816 52.094525 -67.106643 -68.75181 18.494002 -42.167415 109.573089 52.074761 54.42191 151.760347 41.568309 19.183348 -15.36204 68.696564 98.600569 106.663934 7.086675 32.799383
-0.1507 20.224600000000002 -0.8829999999999999 169.264123 -38.819617 -166.953623 -19.515325 43.705004 0.0 4.251123 -60.566348 9.659504 132.96147 51.850261 -64.046865 -80.28045 1.99317 -102.189776 -49.435231 9.555899 -20.583193 -40.95384 -1.492054 3.994192 33.145316 30.052651 -18.440132 -111.240911 3.755018 164.033847 78.156004 -27.277119 -85.374622 162.121038 41.370739 149.568352 34.659775 -85.568874 -99.496788 106.663593 -68.61121 -77.655816 -2.516336 52.924582 40.883154 179.319152 -55.210517 62.367697 100.70703 -0.07897 -20.610986 -165.617806 61.773594 30.152839 68.129461 77.55117 8.128031 -56.069036 66.396874 48.177331 -74.887244 2.096453 -157.884195 -30.797765 18.014048 28.188108 -67.14492 -84.41993 -24.439371 -111.844493 47.156068 107.116801 -165.772972 -4.544559 -18.067831 -171.071505 43.920639 -130.95756 83.842747 -80.949672 -155.755914 -44.256141 0.353026 -19.154453 -65.864061 7.089532 73.604706 18.87669 31.721136 -47.623038 48.713769 -0.946948 140.320738 173.165365 -40.699629 -149.694941 103.730466 -34.730166 125.404281 69.694487 -1.491643 21.521957 83.102973 36.129836 93.223207 -22.695494 -2.976927 28.568286 -4.215428 10.464489 22.087929 17.264554 -79.411302 -162.454574 -98.078456 -79.017976 -73.666854 -150.138324 22.625249 -106.276763 90.834829 26.269504 47.909551 -155.309942 46.099618 29.706194 58.443033 52.51336 28.353128 122.655362 0.316627 31.20209
-0.1833 21.5898 -1.6972 171.923761 -25.448033 -169.590701 -16.963365 17.803463 79.433997 -26.223379 -8.630437 -77.532386 173.238027 33.208626 126.212782 130.562582 -28.647536 95.580967 -78.574943 13.053579 -15.921596 -57.718154 0.407738 -0.739858 -114.317335 -29.786633 -173.058151 -109.392312 -81.826924 -82.515877 -1.007498 29.492186 -117.573393 157.262699 -6.689027 129.923623 -109.694921 0.641025 144.702309 27.461061 47.990919 -11.011306 -6.556704 57.922679 13.327219 120.917774 -25.990904 3.645964 78.781917 5.377535 -45.205168 -2.504816 -61.846929 79.463116 73.54062 17.857169 -36.384144 13.789721 -24.746715 18.808729 -90.176996 44.719388 98.269001 -178.557319 -40.448589 77.926409 -11.169826 33.637462 -14.183483 110.3159 0.64569 -143.038547 -3.177767 11.518862 155.226679 -140.715014 12.266124 -131.49221 -46.959528 61.325101 7.30557 -149.688382 -26.000378 -166.358252 83.817282 75.710796 -165.220022 -54.983811 70.725164 114.971296 -84.369793 65.573773 22.451534 -79.436703 -1.229486 2.968813 110.432896 -22.741435 144.799714 53.944141 -59.055392 27.616188 -78.025521 -22.954589 13.835729 47.277866 -23.048539 -52.479634 120.249552 72.32096 27.009115 -135.347002 -8.027293 -78.091818 -70.940597 48.738494 144.599876 -85.73151 62.952159 -39.331337 117.33277 66.407972 64.654827 121.226614 34.547578 41.958682 -40.779326 69.694768 -58.001286 -155.276883 -22.464615 -177.835307
-0.46909999999999996 28.4995 -3.2444 174.522154 -19.285929 -173.985802 -4.603207 16.916842 1.158254 -2.059266 -23.206017 -6.380286 166.123315 58.689568 152.890789 25.945629 -64.658347 25.707037 -39.106905 22.419476 -58.322483 -30.513455 7.466472 -26.907174 -41.782599 -80.535457 -92.619014 -93.291097 -58.870561 -88.346863 -174.715172 17.394951 -95.551619 19.653162 -5.235494 -5.61999 -5.310315 69.220052 -1.819078 7.100415 -63.010125 -60.357241 9.668931 2.819023 -33.519172 -41.372315 -45.265279 -150.569164 83.288499 32.024964 -67.617088 -150.406045 -77.906488 -98.316933 74.754589 27.743938 -54.562434 -1.010851 24.415082 30.915775 -121.901728 63.587284 85.887528 59.104666 43.600515 87.381871 122.38246 -26.398905 -176.626248 175.36181 -43.022666 146.185199 173.753229 66.120824 -24.608567 -125.629999 24.855234 -130.212859 102.355489 -79.047702 -126.661973 23.559743 -45.521934 -164.393631 -36.2252 -71.64757 77.593406 119.43604 -16.844202 -94.512993 -51.40835 61.230242 -1.757803 -90.746648 0.649051 28.141953 -95.674516 -78.142344 -101.165074 68.329399 19.091016 55.638133 -39.221505 -46.328708 23.969051 110.134927 71.602584 -112.720338 -7.840521 1.243358 10.366614 47.312626 -56.280107 23.704078 -24.068155 72.761004 -18.569826 -76.794486 -61.997264 -43.959627 -152.194294 79.987559 -0.0 101.203255 -0.709541 86.494641 89.591315 47.453705 24.335034 5.274137 -36.455366 -24.23706
-1.2392 38.981 -5.698799999999999 174.664538 -10.918831 -179.246932 -0.739059 26.593622 -0.0 -3.308476 -29.989072 -1.906612 130.050062 44.721614 -9.188129 22.947348 82.039796 174.321259 172.910178 0.842754 -13.540768 -19.352951 5.541145 -31.689395 -127.48721 1.710009 167.547195 -124.362492 59.915886 100.222332 -81.910222 -0.407014 132.717035 100.776381 -56.553903 92.251363 -147.248943 0.628526 125.281305 -161.763334 1.457646 44.07384 -111.765548 69.96921 111.778925 171.200571 -20.362999 18.260882 86.230654 27.715892 -64.521498 -59.183167 -5.908089 -30.032001 109.245242 41.592904 -43.854641 -20.773144 30.007749 -1.107289 -85.779487 -19.771406 -15.527001 42.747954 7.708633 -75.188145 126.074556 0.569248 -169.878646 -155.438026 -1.013299 175.869309 179.286836 6.133009 -35.234757 -100.510705 31.068827 -147.408659 -39.334679 54.82236 5.388101 -143.916448 -18.171949 -155.53782 157.008048 -27.494459 -112.008164 -86.794758 -52.16342 -72.323815 116.163373 -66.425587 -170.097588 -148.634208 -69.7132 -167.773451 108.073862 -15.549012 -48.797837 -38.015789 59.09455 -114.331417 47.464245 -75.856849 85.03578 10.646225 37.425187 4.482963 -2.354381 5.291172 24.029612 20.793457 -59.386355 23.808622 52.017153 67.664036 -121.308133 -113.133988 1.823134 -63.095471 -16.019005 11.942613 -31.329618 -32.449132 -51.968655 -136.605331 -96.753199 -26.425182 -176.609464 179.001809 -14.627286 -0.353864
